<mxfile host="app.diagrams.net" agent="Mozilla/5.0 (Windows NT 10.0; Win64; x64) AppleWebKit/537.36 (KHTML, like Gecko) Chrome/136.0.0.0 Safari/537.36" version="26.2.13">
  <diagram name="Page-1" id="x3XnYrBimCVEoclA7PsF">
    <mxGraphModel dx="2568" dy="1128" grid="1" gridSize="10" guides="1" tooltips="1" connect="1" arrows="1" fold="1" page="1" pageScale="1" pageWidth="850" pageHeight="1100" math="0" shadow="0">
      <root>
        <mxCell id="0" />
        <mxCell id="1" parent="0" />
        <mxCell id="wyPlFvo7SHN7wSIo1H7S-29" value="" style="group" vertex="1" connectable="0" parent="1">
          <mxGeometry x="20" y="930" width="320" height="130" as="geometry" />
        </mxCell>
        <mxCell id="wyPlFvo7SHN7wSIo1H7S-6" value="connection&lt;div&gt;&lt;br&gt;&lt;/div&gt;&lt;div&gt;&lt;br&gt;&lt;/div&gt;&lt;div&gt;&lt;br&gt;&lt;/div&gt;&lt;div&gt;&lt;br&gt;&lt;/div&gt;&lt;div&gt;&lt;br&gt;&lt;/div&gt;" style="shape=folder;fontStyle=1;spacingTop=10;tabWidth=40;tabHeight=14;tabPosition=left;html=1;whiteSpace=wrap;" vertex="1" parent="wyPlFvo7SHN7wSIo1H7S-29">
          <mxGeometry width="320" height="130" as="geometry" />
        </mxCell>
        <mxCell id="wyPlFvo7SHN7wSIo1H7S-20" value="&lt;b&gt;DbConnection&lt;/b&gt;" style="html=1;whiteSpace=wrap;" vertex="1" parent="wyPlFvo7SHN7wSIo1H7S-29">
          <mxGeometry x="105" y="61.17647058823529" width="110" height="19.11764705882353" as="geometry" />
        </mxCell>
        <mxCell id="wyPlFvo7SHN7wSIo1H7S-30" value="" style="group" vertex="1" connectable="0" parent="1">
          <mxGeometry x="20" y="630" width="320" height="260" as="geometry" />
        </mxCell>
        <mxCell id="wyPlFvo7SHN7wSIo1H7S-4" value="dao&lt;div&gt;&lt;br&gt;&lt;/div&gt;&lt;div&gt;&lt;br&gt;&lt;/div&gt;&lt;div&gt;&lt;br&gt;&lt;/div&gt;&lt;div&gt;&lt;br&gt;&lt;/div&gt;&lt;div&gt;&lt;br&gt;&lt;/div&gt;&lt;div&gt;&lt;br&gt;&lt;/div&gt;&lt;div&gt;&lt;br&gt;&lt;/div&gt;&lt;div&gt;&lt;br&gt;&lt;/div&gt;&lt;div&gt;&lt;br&gt;&lt;/div&gt;&lt;div&gt;&lt;br&gt;&lt;/div&gt;&lt;div&gt;&lt;br&gt;&lt;/div&gt;&lt;div&gt;&lt;br&gt;&lt;/div&gt;" style="shape=folder;fontStyle=1;spacingTop=10;tabWidth=40;tabHeight=14;tabPosition=left;html=1;whiteSpace=wrap;" vertex="1" parent="wyPlFvo7SHN7wSIo1H7S-30">
          <mxGeometry width="320" height="260" as="geometry" />
        </mxCell>
        <mxCell id="wyPlFvo7SHN7wSIo1H7S-22" value="&lt;b&gt;ClientDAO&lt;/b&gt;" style="html=1;whiteSpace=wrap;" vertex="1" parent="wyPlFvo7SHN7wSIo1H7S-30">
          <mxGeometry x="20" y="95" width="110" height="25" as="geometry" />
        </mxCell>
        <mxCell id="wyPlFvo7SHN7wSIo1H7S-23" value="&lt;b&gt;ProductDAO&lt;/b&gt;" style="html=1;whiteSpace=wrap;" vertex="1" parent="wyPlFvo7SHN7wSIo1H7S-30">
          <mxGeometry x="20" y="132.5" width="110" height="25" as="geometry" />
        </mxCell>
        <mxCell id="wyPlFvo7SHN7wSIo1H7S-24" value="&lt;b&gt;OrderDAO&lt;/b&gt;" style="html=1;whiteSpace=wrap;" vertex="1" parent="wyPlFvo7SHN7wSIo1H7S-30">
          <mxGeometry x="20" y="170" width="110" height="25" as="geometry" />
        </mxCell>
        <mxCell id="wyPlFvo7SHN7wSIo1H7S-25" value="&lt;b&gt;BillDAO&lt;/b&gt;" style="html=1;whiteSpace=wrap;" vertex="1" parent="wyPlFvo7SHN7wSIo1H7S-30">
          <mxGeometry x="20" y="210" width="110" height="25" as="geometry" />
        </mxCell>
        <mxCell id="wyPlFvo7SHN7wSIo1H7S-26" value="&lt;b&gt;AbstractDAO&lt;/b&gt;" style="html=1;whiteSpace=wrap;" vertex="1" parent="wyPlFvo7SHN7wSIo1H7S-30">
          <mxGeometry x="20" y="58" width="110" height="25" as="geometry" />
        </mxCell>
        <mxCell id="wyPlFvo7SHN7wSIo1H7S-27" value="utils&lt;div&gt;&lt;br&gt;&lt;/div&gt;&lt;div&gt;&lt;br&gt;&lt;/div&gt;&lt;div&gt;&lt;br&gt;&lt;/div&gt;&lt;div&gt;&lt;br&gt;&lt;/div&gt;" style="shape=folder;fontStyle=1;spacingTop=10;tabWidth=40;tabHeight=14;tabPosition=left;html=1;whiteSpace=wrap;" vertex="1" parent="wyPlFvo7SHN7wSIo1H7S-30">
          <mxGeometry x="160" y="120" width="130" height="115" as="geometry" />
        </mxCell>
        <mxCell id="wyPlFvo7SHN7wSIo1H7S-28" value="&lt;b&gt;DAOUtils&lt;/b&gt;" style="html=1;whiteSpace=wrap;" vertex="1" parent="wyPlFvo7SHN7wSIo1H7S-30">
          <mxGeometry x="170" y="180" width="110" height="25" as="geometry" />
        </mxCell>
        <mxCell id="wyPlFvo7SHN7wSIo1H7S-31" value="" style="group" vertex="1" connectable="0" parent="1">
          <mxGeometry x="20" y="10" width="320" height="240" as="geometry" />
        </mxCell>
        <mxCell id="wyPlFvo7SHN7wSIo1H7S-1" value="gui&lt;div&gt;&lt;br&gt;&lt;/div&gt;&lt;div&gt;&lt;br&gt;&lt;/div&gt;&lt;div&gt;&lt;br&gt;&lt;/div&gt;&lt;div&gt;&lt;br&gt;&lt;/div&gt;&lt;div&gt;&lt;br&gt;&lt;/div&gt;&lt;div&gt;&lt;br&gt;&lt;/div&gt;&lt;div&gt;&lt;br&gt;&lt;/div&gt;&lt;div&gt;&lt;br&gt;&lt;/div&gt;&lt;div&gt;&lt;br&gt;&lt;/div&gt;&lt;div&gt;&lt;br&gt;&lt;/div&gt;&lt;div&gt;&lt;br&gt;&lt;/div&gt;" style="shape=folder;fontStyle=1;spacingTop=10;tabWidth=40;tabHeight=14;tabPosition=left;html=1;whiteSpace=wrap;" vertex="1" parent="wyPlFvo7SHN7wSIo1H7S-31">
          <mxGeometry width="320" height="240" as="geometry" />
        </mxCell>
        <mxCell id="wyPlFvo7SHN7wSIo1H7S-8" value="controllers&lt;div&gt;&lt;br&gt;&lt;/div&gt;&lt;div&gt;&lt;br&gt;&lt;/div&gt;&lt;div&gt;&lt;br&gt;&lt;/div&gt;&lt;div&gt;&lt;br&gt;&lt;/div&gt;&lt;div&gt;&lt;br&gt;&lt;/div&gt;&lt;div&gt;&lt;br&gt;&lt;/div&gt;" style="shape=folder;fontStyle=1;spacingTop=10;tabWidth=40;tabHeight=14;tabPosition=left;html=1;whiteSpace=wrap;" vertex="1" parent="wyPlFvo7SHN7wSIo1H7S-31">
          <mxGeometry x="10" y="70" width="140" height="150" as="geometry" />
        </mxCell>
        <mxCell id="wyPlFvo7SHN7wSIo1H7S-9" value="displayUtils&lt;div&gt;&lt;br&gt;&lt;/div&gt;&lt;div&gt;&lt;br&gt;&lt;/div&gt;" style="shape=folder;fontStyle=1;spacingTop=10;tabWidth=40;tabHeight=14;tabPosition=left;html=1;whiteSpace=wrap;" vertex="1" parent="wyPlFvo7SHN7wSIo1H7S-31">
          <mxGeometry x="170" y="120" width="130" height="100" as="geometry" />
        </mxCell>
        <mxCell id="wyPlFvo7SHN7wSIo1H7S-14" value="&lt;b&gt;ClientController&lt;/b&gt;" style="html=1;whiteSpace=wrap;" vertex="1" parent="wyPlFvo7SHN7wSIo1H7S-31">
          <mxGeometry x="25" y="127.5" width="110" height="25" as="geometry" />
        </mxCell>
        <mxCell id="wyPlFvo7SHN7wSIo1H7S-16" value="&lt;b&gt;ProductController&lt;/b&gt;" style="html=1;whiteSpace=wrap;" vertex="1" parent="wyPlFvo7SHN7wSIo1H7S-31">
          <mxGeometry x="25" y="157.5" width="110" height="25" as="geometry" />
        </mxCell>
        <mxCell id="wyPlFvo7SHN7wSIo1H7S-17" value="&lt;b&gt;OrdersController&lt;/b&gt;" style="html=1;whiteSpace=wrap;" vertex="1" parent="wyPlFvo7SHN7wSIo1H7S-31">
          <mxGeometry x="25" y="185" width="110" height="25" as="geometry" />
        </mxCell>
        <mxCell id="wyPlFvo7SHN7wSIo1H7S-18" value="&lt;b&gt;TableViewBuilder&lt;/b&gt;" style="html=1;whiteSpace=wrap;" vertex="1" parent="wyPlFvo7SHN7wSIo1H7S-31">
          <mxGeometry x="180" y="182.5" width="110" height="25" as="geometry" />
        </mxCell>
        <mxCell id="wyPlFvo7SHN7wSIo1H7S-19" value="&lt;b&gt;View&lt;/b&gt;" style="html=1;whiteSpace=wrap;" vertex="1" parent="wyPlFvo7SHN7wSIo1H7S-31">
          <mxGeometry x="170" y="70" width="110" height="25" as="geometry" />
        </mxCell>
        <mxCell id="wyPlFvo7SHN7wSIo1H7S-51" value="" style="group" vertex="1" connectable="0" parent="1">
          <mxGeometry y="300" width="370" height="290" as="geometry" />
        </mxCell>
        <mxCell id="wyPlFvo7SHN7wSIo1H7S-2" value="bll&lt;div&gt;&lt;br&gt;&lt;/div&gt;&lt;div&gt;&lt;br&gt;&lt;/div&gt;&lt;div&gt;&lt;br&gt;&lt;/div&gt;&lt;div&gt;&lt;br&gt;&lt;/div&gt;&lt;div&gt;&lt;br&gt;&lt;/div&gt;&lt;div&gt;&lt;br&gt;&lt;/div&gt;&lt;div&gt;&lt;br&gt;&lt;/div&gt;&lt;div&gt;&lt;br&gt;&lt;/div&gt;&lt;div&gt;&lt;br&gt;&lt;/div&gt;&lt;div&gt;&lt;br&gt;&lt;/div&gt;&lt;div&gt;&lt;br&gt;&lt;/div&gt;&lt;div&gt;&lt;br&gt;&lt;/div&gt;&lt;div&gt;&lt;br&gt;&lt;/div&gt;&lt;div&gt;&lt;br&gt;&lt;/div&gt;&lt;div&gt;&lt;br&gt;&lt;/div&gt;&lt;div&gt;&lt;br&gt;&lt;/div&gt;" style="shape=folder;fontStyle=1;spacingTop=10;tabWidth=40;tabHeight=14;tabPosition=left;html=1;whiteSpace=wrap;" vertex="1" parent="wyPlFvo7SHN7wSIo1H7S-51">
          <mxGeometry width="370" height="290" as="geometry" />
        </mxCell>
        <mxCell id="wyPlFvo7SHN7wSIo1H7S-47" value="exceptions&lt;div&gt;&lt;br&gt;&lt;/div&gt;" style="shape=folder;fontStyle=1;spacingTop=10;tabWidth=40;tabHeight=14;tabPosition=left;html=1;whiteSpace=wrap;" vertex="1" parent="wyPlFvo7SHN7wSIo1H7S-51">
          <mxGeometry x="20" y="40" width="340" height="70" as="geometry" />
        </mxCell>
        <mxCell id="wyPlFvo7SHN7wSIo1H7S-33" value="" style="group" vertex="1" connectable="0" parent="wyPlFvo7SHN7wSIo1H7S-51">
          <mxGeometry y="30" width="350" height="260" as="geometry" />
        </mxCell>
        <mxCell id="wyPlFvo7SHN7wSIo1H7S-35" value="&lt;b&gt;ClientBLL&lt;/b&gt;" style="html=1;whiteSpace=wrap;" vertex="1" parent="wyPlFvo7SHN7wSIo1H7S-33">
          <mxGeometry x="20" y="95" width="110" height="25" as="geometry" />
        </mxCell>
        <mxCell id="wyPlFvo7SHN7wSIo1H7S-36" value="&lt;b&gt;ProductBLL&lt;/b&gt;" style="html=1;whiteSpace=wrap;" vertex="1" parent="wyPlFvo7SHN7wSIo1H7S-33">
          <mxGeometry x="20" y="132.5" width="110" height="25" as="geometry" />
        </mxCell>
        <mxCell id="wyPlFvo7SHN7wSIo1H7S-37" value="&lt;b&gt;OrderBLL&lt;/b&gt;" style="html=1;whiteSpace=wrap;" vertex="1" parent="wyPlFvo7SHN7wSIo1H7S-33">
          <mxGeometry x="20" y="170" width="110" height="25" as="geometry" />
        </mxCell>
        <mxCell id="wyPlFvo7SHN7wSIo1H7S-38" value="&lt;b&gt;BillBLL&lt;/b&gt;" style="html=1;whiteSpace=wrap;" vertex="1" parent="wyPlFvo7SHN7wSIo1H7S-33">
          <mxGeometry x="20" y="210" width="110" height="25" as="geometry" />
        </mxCell>
        <mxCell id="wyPlFvo7SHN7wSIo1H7S-40" value="&lt;div&gt;validators&lt;/div&gt;&lt;div&gt;&lt;br&gt;&lt;/div&gt;&lt;div&gt;&lt;br&gt;&lt;/div&gt;&lt;div&gt;&lt;br&gt;&lt;/div&gt;&lt;div&gt;&lt;br&gt;&lt;/div&gt;&lt;div&gt;&lt;br&gt;&lt;/div&gt;" style="shape=folder;fontStyle=1;spacingTop=10;tabWidth=40;tabHeight=14;tabPosition=left;html=1;whiteSpace=wrap;" vertex="1" parent="wyPlFvo7SHN7wSIo1H7S-33">
          <mxGeometry x="160" y="90" width="130" height="145" as="geometry" />
        </mxCell>
        <mxCell id="wyPlFvo7SHN7wSIo1H7S-41" value="&lt;b&gt;AddressValidator&lt;/b&gt;" style="html=1;whiteSpace=wrap;" vertex="1" parent="wyPlFvo7SHN7wSIo1H7S-33">
          <mxGeometry x="170" y="180" width="110" height="25" as="geometry" />
        </mxCell>
        <mxCell id="wyPlFvo7SHN7wSIo1H7S-42" value="&lt;b&gt;EmailValidator&lt;/b&gt;" style="html=1;whiteSpace=wrap;" vertex="1" parent="wyPlFvo7SHN7wSIo1H7S-33">
          <mxGeometry x="170" y="210" width="110" height="20" as="geometry" />
        </mxCell>
        <mxCell id="wyPlFvo7SHN7wSIo1H7S-44" value="«Interface»&lt;br&gt;&lt;b&gt;Validator&lt;/b&gt;" style="html=1;dropTarget=0;whiteSpace=wrap;" vertex="1" parent="wyPlFvo7SHN7wSIo1H7S-33">
          <mxGeometry x="170" y="147.5" width="110" height="30" as="geometry" />
        </mxCell>
        <mxCell id="wyPlFvo7SHN7wSIo1H7S-50" value="&lt;b&gt;InvalidEmailException&lt;/b&gt;" style="html=1;whiteSpace=wrap;" vertex="1" parent="wyPlFvo7SHN7wSIo1H7S-33">
          <mxGeometry x="190" y="50" width="160" height="20" as="geometry" />
        </mxCell>
        <mxCell id="wyPlFvo7SHN7wSIo1H7S-48" value="&lt;b&gt;InvalidAddressException&lt;/b&gt;" style="html=1;whiteSpace=wrap;" vertex="1" parent="wyPlFvo7SHN7wSIo1H7S-51">
          <mxGeometry x="30" y="80" width="160" height="20" as="geometry" />
        </mxCell>
        <mxCell id="wyPlFvo7SHN7wSIo1H7S-58" value="" style="group" vertex="1" connectable="0" parent="1">
          <mxGeometry x="540" y="370" width="260" height="180" as="geometry" />
        </mxCell>
        <mxCell id="wyPlFvo7SHN7wSIo1H7S-3" value="model&lt;div&gt;&lt;br&gt;&lt;/div&gt;&lt;div&gt;&lt;br&gt;&lt;/div&gt;&lt;div&gt;&lt;br&gt;&lt;/div&gt;&lt;div&gt;&lt;br&gt;&lt;/div&gt;&lt;div&gt;&lt;br&gt;&lt;/div&gt;&lt;div&gt;&lt;br&gt;&lt;/div&gt;&lt;div&gt;&lt;br&gt;&lt;/div&gt;&lt;div&gt;&lt;br&gt;&lt;/div&gt;&lt;div&gt;&lt;br&gt;&lt;/div&gt;" style="shape=folder;fontStyle=1;spacingTop=10;tabWidth=40;tabHeight=14;tabPosition=left;html=1;whiteSpace=wrap;" vertex="1" parent="wyPlFvo7SHN7wSIo1H7S-58">
          <mxGeometry width="260" height="180" as="geometry" />
        </mxCell>
        <mxCell id="wyPlFvo7SHN7wSIo1H7S-52" value="&lt;b&gt;Client&lt;/b&gt;" style="html=1;whiteSpace=wrap;" vertex="1" parent="wyPlFvo7SHN7wSIo1H7S-58">
          <mxGeometry x="10" y="50" width="110" height="30" as="geometry" />
        </mxCell>
        <mxCell id="wyPlFvo7SHN7wSIo1H7S-54" value="&lt;b&gt;Product&lt;/b&gt;" style="html=1;whiteSpace=wrap;" vertex="1" parent="wyPlFvo7SHN7wSIo1H7S-58">
          <mxGeometry x="10" y="90" width="110" height="30" as="geometry" />
        </mxCell>
        <mxCell id="wyPlFvo7SHN7wSIo1H7S-55" value="&lt;b&gt;Order&lt;/b&gt;" style="html=1;whiteSpace=wrap;" vertex="1" parent="wyPlFvo7SHN7wSIo1H7S-58">
          <mxGeometry x="10" y="130" width="110" height="30" as="geometry" />
        </mxCell>
        <mxCell id="wyPlFvo7SHN7wSIo1H7S-56" value="&lt;b&gt;OrderDetails&lt;/b&gt;" style="html=1;whiteSpace=wrap;" vertex="1" parent="wyPlFvo7SHN7wSIo1H7S-58">
          <mxGeometry x="140" y="130" width="110" height="30" as="geometry" />
        </mxCell>
        <mxCell id="wyPlFvo7SHN7wSIo1H7S-57" value="&lt;b&gt;Bill&lt;/b&gt;" style="html=1;whiteSpace=wrap;" vertex="1" parent="wyPlFvo7SHN7wSIo1H7S-58">
          <mxGeometry x="140" y="90" width="110" height="30" as="geometry" />
        </mxCell>
        <mxCell id="wyPlFvo7SHN7wSIo1H7S-59" value="" style="group" vertex="1" connectable="0" parent="1">
          <mxGeometry x="560" y="680" width="220" height="170" as="geometry" />
        </mxCell>
        <mxCell id="wyPlFvo7SHN7wSIo1H7S-7" value="annotations&lt;div&gt;&lt;br&gt;&lt;/div&gt;&lt;div&gt;&lt;br&gt;&lt;/div&gt;&lt;div&gt;&lt;br&gt;&lt;/div&gt;&lt;div&gt;&lt;br&gt;&lt;/div&gt;&lt;div&gt;&lt;br&gt;&lt;/div&gt;&lt;div&gt;&lt;br&gt;&lt;/div&gt;&lt;div&gt;&lt;br&gt;&lt;/div&gt;&lt;div&gt;&lt;br&gt;&lt;/div&gt;" style="shape=folder;fontStyle=1;spacingTop=10;tabWidth=40;tabHeight=14;tabPosition=left;html=1;whiteSpace=wrap;container=0;" vertex="1" parent="wyPlFvo7SHN7wSIo1H7S-59">
          <mxGeometry width="220" height="170" as="geometry" />
        </mxCell>
        <mxCell id="wyPlFvo7SHN7wSIo1H7S-10" value="&lt;div&gt;&lt;span style=&quot;background-color: transparent; color: light-dark(rgb(0, 0, 0), rgb(255, 255, 255));&quot;&gt;«Annotation»&lt;/span&gt;&lt;/div&gt;&lt;div&gt;&lt;b&gt;Table&lt;/b&gt;&lt;/div&gt;" style="html=1;dropTarget=0;whiteSpace=wrap;container=0;" vertex="1" parent="wyPlFvo7SHN7wSIo1H7S-59">
          <mxGeometry x="40.620000000000005" y="110" width="139.38" height="40" as="geometry" />
        </mxCell>
        <mxCell id="wyPlFvo7SHN7wSIo1H7S-12" value="&lt;div&gt;&lt;span style=&quot;background-color: transparent; color: light-dark(rgb(0, 0, 0), rgb(255, 255, 255));&quot;&gt;«Annotation»&lt;/span&gt;&lt;/div&gt;&lt;div&gt;&lt;b&gt;Column&lt;/b&gt;&lt;/div&gt;" style="html=1;dropTarget=0;whiteSpace=wrap;container=0;" vertex="1" parent="wyPlFvo7SHN7wSIo1H7S-59">
          <mxGeometry x="40" y="50" width="140" height="40" as="geometry" />
        </mxCell>
        <mxCell id="wyPlFvo7SHN7wSIo1H7S-61" value="Use" style="endArrow=open;endSize=12;dashed=1;html=1;rounded=0;exitX=0.5;exitY=1;exitDx=0;exitDy=0;exitPerimeter=0;" edge="1" parent="1" source="wyPlFvo7SHN7wSIo1H7S-1">
          <mxGeometry width="160" relative="1" as="geometry">
            <mxPoint x="350" y="230" as="sourcePoint" />
            <mxPoint x="180" y="310" as="targetPoint" />
          </mxGeometry>
        </mxCell>
        <mxCell id="wyPlFvo7SHN7wSIo1H7S-65" value="Use" style="endArrow=open;endSize=12;dashed=1;html=1;rounded=0;entryX=0.499;entryY=0.054;entryDx=0;entryDy=0;entryPerimeter=0;" edge="1" parent="1" target="wyPlFvo7SHN7wSIo1H7S-4">
          <mxGeometry width="160" relative="1" as="geometry">
            <mxPoint x="180" y="590" as="sourcePoint" />
            <mxPoint x="350" y="700" as="targetPoint" />
          </mxGeometry>
        </mxCell>
        <mxCell id="wyPlFvo7SHN7wSIo1H7S-66" value="Use" style="endArrow=open;endSize=12;dashed=1;html=1;rounded=0;exitX=0.5;exitY=1;exitDx=0;exitDy=0;exitPerimeter=0;entryX=0.5;entryY=0.113;entryDx=0;entryDy=0;entryPerimeter=0;" edge="1" parent="1" source="wyPlFvo7SHN7wSIo1H7S-4" target="wyPlFvo7SHN7wSIo1H7S-6">
          <mxGeometry width="160" relative="1" as="geometry">
            <mxPoint x="290" y="990" as="sourcePoint" />
            <mxPoint x="450" y="990" as="targetPoint" />
          </mxGeometry>
        </mxCell>
        <mxCell id="wyPlFvo7SHN7wSIo1H7S-67" value="Use" style="endArrow=open;endSize=12;dashed=1;html=1;rounded=0;exitX=0;exitY=0;exitDx=320;exitDy=127;exitPerimeter=0;entryX=0.435;entryY=0.099;entryDx=0;entryDy=0;entryPerimeter=0;" edge="1" parent="1" source="wyPlFvo7SHN7wSIo1H7S-1" target="wyPlFvo7SHN7wSIo1H7S-3">
          <mxGeometry width="160" relative="1" as="geometry">
            <mxPoint x="430" y="370" as="sourcePoint" />
            <mxPoint x="590" y="370" as="targetPoint" />
            <Array as="points">
              <mxPoint x="650" y="137" />
            </Array>
          </mxGeometry>
        </mxCell>
        <mxCell id="wyPlFvo7SHN7wSIo1H7S-68" value="Use" style="endArrow=open;endSize=12;dashed=1;html=1;rounded=0;exitX=0;exitY=0;exitDx=370;exitDy=152;exitPerimeter=0;entryX=0.006;entryY=0.474;entryDx=0;entryDy=0;entryPerimeter=0;" edge="1" parent="1" source="wyPlFvo7SHN7wSIo1H7S-2" target="wyPlFvo7SHN7wSIo1H7S-3">
          <mxGeometry width="160" relative="1" as="geometry">
            <mxPoint x="430" y="490" as="sourcePoint" />
            <mxPoint x="590" y="490" as="targetPoint" />
          </mxGeometry>
        </mxCell>
        <mxCell id="wyPlFvo7SHN7wSIo1H7S-69" value="Use" style="endArrow=open;endSize=12;dashed=1;html=1;rounded=0;exitX=0;exitY=0;exitDx=320;exitDy=137;exitPerimeter=0;entryX=0;entryY=0;entryDx=0;entryDy=138.5;entryPerimeter=0;" edge="1" parent="1" source="wyPlFvo7SHN7wSIo1H7S-4" target="wyPlFvo7SHN7wSIo1H7S-3">
          <mxGeometry width="160" relative="1" as="geometry">
            <mxPoint x="430" y="690" as="sourcePoint" />
            <mxPoint x="560" y="770" as="targetPoint" />
          </mxGeometry>
        </mxCell>
        <mxCell id="wyPlFvo7SHN7wSIo1H7S-70" value="Use" style="endArrow=open;endSize=12;dashed=1;html=1;rounded=0;exitX=0.5;exitY=1;exitDx=0;exitDy=0;exitPerimeter=0;entryX=0.496;entryY=0.088;entryDx=0;entryDy=0;entryPerimeter=0;" edge="1" parent="1" source="wyPlFvo7SHN7wSIo1H7S-3" target="wyPlFvo7SHN7wSIo1H7S-7">
          <mxGeometry width="160" relative="1" as="geometry">
            <mxPoint x="430" y="570" as="sourcePoint" />
            <mxPoint x="690" y="694" as="targetPoint" />
          </mxGeometry>
        </mxCell>
        <mxCell id="wyPlFvo7SHN7wSIo1H7S-71" value="Use" style="endArrow=open;endSize=12;dashed=1;html=1;rounded=0;exitX=0;exitY=0;exitDx=320;exitDy=137;exitPerimeter=0;" edge="1" parent="1" source="wyPlFvo7SHN7wSIo1H7S-4">
          <mxGeometry width="160" relative="1" as="geometry">
            <mxPoint x="430" y="690" as="sourcePoint" />
            <mxPoint x="560" y="767" as="targetPoint" />
          </mxGeometry>
        </mxCell>
        <mxCell id="wyPlFvo7SHN7wSIo1H7S-72" value="Use" style="endArrow=open;endSize=12;dashed=1;html=1;rounded=0;exitX=0;exitY=0;exitDx=320;exitDy=70.5;exitPerimeter=0;entryX=0.99;entryY=0.243;entryDx=0;entryDy=0;entryPerimeter=0;" edge="1" parent="1" source="wyPlFvo7SHN7wSIo1H7S-1" target="wyPlFvo7SHN7wSIo1H7S-7">
          <mxGeometry width="160" relative="1" as="geometry">
            <mxPoint x="340" y="140" as="sourcePoint" />
            <mxPoint x="830" y="760" as="targetPoint" />
            <Array as="points">
              <mxPoint x="830" y="81" />
              <mxPoint x="830" y="720" />
            </Array>
          </mxGeometry>
        </mxCell>
      </root>
    </mxGraphModel>
  </diagram>
</mxfile>
